<?xml version="1.0" standalone="no"?>
<!DOCTYPE svg PUBLIC "-//W3C//DTD SVG 20010904//EN"
 "http://www.w3.org/TR/2001/REC-SVG-20010904/DTD/svg10.dtd">
<svg version="1.0" xmlns="http://www.w3.org/2000/svg"
 width="100.000000pt" height="100.000000pt" viewBox="0 0 100.000000 100.000000"
 preserveAspectRatio="xMidYMid meet">

<g transform="translate(0.000000,100.000000) scale(0.100000,-0.100000)"
fill="#000000" stroke="none">
<path d="M415 858 c-11 -6 -21 -12 -23 -13 -2 -2 13 -28 32 -58 20 -31 36 -60
36 -64 0 -5 -71 -126 -158 -268 l-158 -260 -40 -5 c-34 -4 -39 -9 -42 -32 l-3
-28 441 0 441 0 -3 28 c-3 23 -8 28 -42 32 l-40 5 -158 260 c-87 142 -158 263
-158 268 0 4 16 32 35 62 l34 54 -22 16 c-30 21 -30 20 -56 -25 -12 -22 -26
-40 -31 -40 -5 0 -19 18 -31 40 -25 44 -25 44 -54 28z m229 -432 c75 -123 136
-226 136 -230 0 -3 -56 -6 -125 -6 l-125 0 0 125 0 125 -30 0 -30 0 0 -125 0
-125 -125 0 c-69 0 -125 3 -125 6 0 12 273 454 280 454 4 0 69 -101 144 -224z"/>
</g>
</svg>
