<svg width="695" height="695" viewBox="195 164.5 695 695" fill="none" xmlns="http://www.w3.org/2000/svg">
<path d="M498.848 411.545C497.534 414.363 494.707 416.164 491.598 416.164H321.164C315.641 416.164 311.164 420.641 311.164 426.164V502C311.164 507.523 315.641 512 321.164 512H439.448C445.3 512 449.172 518.077 446.699 523.381L399.992 623.545C398.678 626.363 395.85 628.164 392.741 628.164H321.164C315.641 628.164 311.164 632.641 311.164 638.164V716C311.164 720.418 307.582 724 303.164 724H203C198.582 724 195 720.418 195 716V310C195 304.477 199.477 300 205 300H538.305C544.157 300 548.028 306.077 545.555 311.381L498.848 411.545Z" fill="white"/>
<path d="M498.848 411.545C497.534 414.363 494.707 416.164 491.598 416.164H321.164C315.641 416.164 311.164 420.641 311.164 426.164V502C311.164 507.523 315.641 512 321.164 512H439.448C445.3 512 449.172 518.077 446.699 523.381L399.992 623.545C398.678 626.363 395.85 628.164 392.741 628.164H321.164C315.641 628.164 311.164 632.641 311.164 638.164V716C311.164 720.418 307.582 724 303.164 724H203C198.582 724 195 720.418 195 716V310C195 304.477 199.477 300 205 300H538.305C544.157 300 548.028 306.077 545.555 311.381L498.848 411.545Z" fill="#ECEFFF"/>
<path d="M498.848 411.545C497.534 414.363 494.707 416.164 491.598 416.164H321.164C315.641 416.164 311.164 420.641 311.164 426.164V502C311.164 507.523 315.641 512 321.164 512H439.448C445.3 512 449.172 518.077 446.699 523.381L399.992 623.545C398.678 626.363 395.85 628.164 392.741 628.164H321.164C315.641 628.164 311.164 632.641 311.164 638.164V716C311.164 720.418 307.582 724 303.164 724H203C198.582 724 195 720.418 195 716V310C195 304.477 199.477 300 205 300H538.305C544.157 300 548.028 306.077 545.555 311.381L498.848 411.545Z" fill="url(#paint0_radial_402_5926)"/>
<path d="M498.848 411.545C497.534 414.363 494.707 416.164 491.598 416.164H321.164C315.641 416.164 311.164 420.641 311.164 426.164V502C311.164 507.523 315.641 512 321.164 512H439.448C445.3 512 449.172 518.077 446.699 523.381L399.992 623.545C398.678 626.363 395.85 628.164 392.741 628.164H321.164C315.641 628.164 311.164 632.641 311.164 638.164V716C311.164 720.418 307.582 724 303.164 724H203C198.582 724 195 720.418 195 716V310C195 304.477 199.477 300 205 300H538.305C544.157 300 548.028 306.077 545.555 311.381L498.848 411.545Z" fill="url(#paint1_radial_402_5926)"/>
<path d="M498.848 411.545C497.534 414.363 494.707 416.164 491.598 416.164H321.164C315.641 416.164 311.164 420.641 311.164 426.164V502C311.164 507.523 315.641 512 321.164 512H439.448C445.3 512 449.172 518.077 446.699 523.381L399.992 623.545C398.678 626.363 395.85 628.164 392.741 628.164H321.164C315.641 628.164 311.164 632.641 311.164 638.164V716C311.164 720.418 307.582 724 303.164 724H203C198.582 724 195 720.418 195 716V310C195 304.477 199.477 300 205 300H538.305C544.157 300 548.028 306.077 545.555 311.381L498.848 411.545Z" fill="url(#paint2_radial_402_5926)"/>
<path d="M498.848 411.545C497.534 414.363 494.707 416.164 491.598 416.164H321.164C315.641 416.164 311.164 420.641 311.164 426.164V502C311.164 507.523 315.641 512 321.164 512H439.448C445.3 512 449.172 518.077 446.699 523.381L399.992 623.545C398.678 626.363 395.85 628.164 392.741 628.164H321.164C315.641 628.164 311.164 632.641 311.164 638.164V716C311.164 720.418 307.582 724 303.164 724H203C198.582 724 195 720.418 195 716V310C195 304.477 199.477 300 205 300H538.305C544.157 300 548.028 306.077 545.555 311.381L498.848 411.545Z" fill="url(#paint3_radial_402_5926)"/>
<path d="M688.908 560.322C686.291 554.709 690.77 548.423 696.893 549.353C757.064 558.491 810.471 588.221 849.703 631.13C850.244 631.721 850.689 632.392 851.027 633.118L888.099 712.619C890.572 717.923 886.701 724 880.849 724H770.33C767.221 724 764.393 722.199 763.079 719.381L688.908 560.322ZM518.744 719.381C517.43 722.199 514.602 724 511.493 724H421.614C416.148 724 412.297 718.637 414.255 713.534C442.643 639.551 503.816 581.812 579.989 558.107C586.39 556.114 591.818 562.67 588.985 568.746L518.744 719.381ZM704.825 319.586C704.844 319.626 704.877 319.659 704.917 319.678L704.956 319.696C705.03 319.731 705.062 319.819 705.027 319.893C705.009 319.933 705.009 319.979 705.027 320.019L807.477 539.725C810.905 547.077 802.133 554.798 794.992 550.951C758.455 531.27 717.22 519.187 673.402 516.817C670.405 516.655 667.72 514.883 666.451 512.163L648.161 472.939C645.29 466.781 636.532 466.781 633.66 472.939L613.528 516.112C612.404 518.523 610.151 520.21 607.53 520.664C559.993 528.902 516.417 548.698 479.804 577.052C472.49 582.716 458.831 572.994 462.741 564.609L576.796 320.02C576.814 319.98 576.814 319.934 576.795 319.894C576.761 319.819 576.793 319.73 576.867 319.695L576.906 319.677C576.947 319.658 576.98 319.625 576.999 319.584L583.978 304.619C585.292 301.801 588.119 300 591.228 300H690.596C693.705 300 696.532 301.801 697.846 304.619L704.825 319.586Z" fill="white"/>
<path d="M688.908 560.322C686.291 554.709 690.77 548.423 696.893 549.353C757.064 558.491 810.471 588.221 849.703 631.13C850.244 631.721 850.689 632.392 851.027 633.118L888.099 712.619C890.572 717.923 886.701 724 880.849 724H770.33C767.221 724 764.393 722.199 763.079 719.381L688.908 560.322ZM518.744 719.381C517.43 722.199 514.602 724 511.493 724H421.614C416.148 724 412.297 718.637 414.255 713.534C442.643 639.551 503.816 581.812 579.989 558.107C586.39 556.114 591.818 562.67 588.985 568.746L518.744 719.381ZM704.825 319.586C704.844 319.626 704.877 319.659 704.917 319.678L704.956 319.696C705.03 319.731 705.062 319.819 705.027 319.893C705.009 319.933 705.009 319.979 705.027 320.019L807.477 539.725C810.905 547.077 802.133 554.798 794.992 550.951C758.455 531.27 717.22 519.187 673.402 516.817C670.405 516.655 667.72 514.883 666.451 512.163L648.161 472.939C645.29 466.781 636.532 466.781 633.66 472.939L613.528 516.112C612.404 518.523 610.151 520.21 607.53 520.664C559.993 528.902 516.417 548.698 479.804 577.052C472.49 582.716 458.831 572.994 462.741 564.609L576.796 320.02C576.814 319.98 576.814 319.934 576.795 319.894C576.761 319.819 576.793 319.73 576.867 319.695L576.906 319.677C576.947 319.658 576.98 319.625 576.999 319.584L583.978 304.619C585.292 301.801 588.119 300 591.228 300H690.596C693.705 300 696.532 301.801 697.846 304.619L704.825 319.586Z" fill="#ECEFFF"/>
<path d="M688.908 560.322C686.291 554.709 690.77 548.423 696.893 549.353C757.064 558.491 810.471 588.221 849.703 631.13C850.244 631.721 850.689 632.392 851.027 633.118L888.099 712.619C890.572 717.923 886.701 724 880.849 724H770.33C767.221 724 764.393 722.199 763.079 719.381L688.908 560.322ZM518.744 719.381C517.43 722.199 514.602 724 511.493 724H421.614C416.148 724 412.297 718.637 414.255 713.534C442.643 639.551 503.816 581.812 579.989 558.107C586.39 556.114 591.818 562.67 588.985 568.746L518.744 719.381ZM704.825 319.586C704.844 319.626 704.877 319.659 704.917 319.678L704.956 319.696C705.03 319.731 705.062 319.819 705.027 319.893C705.009 319.933 705.009 319.979 705.027 320.019L807.477 539.725C810.905 547.077 802.133 554.798 794.992 550.951C758.455 531.27 717.22 519.187 673.402 516.817C670.405 516.655 667.72 514.883 666.451 512.163L648.161 472.939C645.29 466.781 636.532 466.781 633.66 472.939L613.528 516.112C612.404 518.523 610.151 520.21 607.53 520.664C559.993 528.902 516.417 548.698 479.804 577.052C472.49 582.716 458.831 572.994 462.741 564.609L576.796 320.02C576.814 319.98 576.814 319.934 576.795 319.894C576.761 319.819 576.793 319.73 576.867 319.695L576.906 319.677C576.947 319.658 576.98 319.625 576.999 319.584L583.978 304.619C585.292 301.801 588.119 300 591.228 300H690.596C693.705 300 696.532 301.801 697.846 304.619L704.825 319.586Z" fill="url(#paint4_radial_402_5926)"/>
<path d="M688.908 560.322C686.291 554.709 690.77 548.423 696.893 549.353C757.064 558.491 810.471 588.221 849.703 631.13C850.244 631.721 850.689 632.392 851.027 633.118L888.099 712.619C890.572 717.923 886.701 724 880.849 724H770.33C767.221 724 764.393 722.199 763.079 719.381L688.908 560.322ZM518.744 719.381C517.43 722.199 514.602 724 511.493 724H421.614C416.148 724 412.297 718.637 414.255 713.534C442.643 639.551 503.816 581.812 579.989 558.107C586.39 556.114 591.818 562.67 588.985 568.746L518.744 719.381ZM704.825 319.586C704.844 319.626 704.877 319.659 704.917 319.678L704.956 319.696C705.03 319.731 705.062 319.819 705.027 319.893C705.009 319.933 705.009 319.979 705.027 320.019L807.477 539.725C810.905 547.077 802.133 554.798 794.992 550.951C758.455 531.27 717.22 519.187 673.402 516.817C670.405 516.655 667.72 514.883 666.451 512.163L648.161 472.939C645.29 466.781 636.532 466.781 633.66 472.939L613.528 516.112C612.404 518.523 610.151 520.21 607.53 520.664C559.993 528.902 516.417 548.698 479.804 577.052C472.49 582.716 458.831 572.994 462.741 564.609L576.796 320.02C576.814 319.98 576.814 319.934 576.795 319.894C576.761 319.819 576.793 319.73 576.867 319.695L576.906 319.677C576.947 319.658 576.98 319.625 576.999 319.584L583.978 304.619C585.292 301.801 588.119 300 591.228 300H690.596C693.705 300 696.532 301.801 697.846 304.619L704.825 319.586Z" fill="url(#paint5_radial_402_5926)"/>
<path d="M688.908 560.322C686.291 554.709 690.77 548.423 696.893 549.353C757.064 558.491 810.471 588.221 849.703 631.13C850.244 631.721 850.689 632.392 851.027 633.118L888.099 712.619C890.572 717.923 886.701 724 880.849 724H770.33C767.221 724 764.393 722.199 763.079 719.381L688.908 560.322ZM518.744 719.381C517.43 722.199 514.602 724 511.493 724H421.614C416.148 724 412.297 718.637 414.255 713.534C442.643 639.551 503.816 581.812 579.989 558.107C586.39 556.114 591.818 562.67 588.985 568.746L518.744 719.381ZM704.825 319.586C704.844 319.626 704.877 319.659 704.917 319.678L704.956 319.696C705.03 319.731 705.062 319.819 705.027 319.893C705.009 319.933 705.009 319.979 705.027 320.019L807.477 539.725C810.905 547.077 802.133 554.798 794.992 550.951C758.455 531.27 717.22 519.187 673.402 516.817C670.405 516.655 667.72 514.883 666.451 512.163L648.161 472.939C645.29 466.781 636.532 466.781 633.66 472.939L613.528 516.112C612.404 518.523 610.151 520.21 607.53 520.664C559.993 528.902 516.417 548.698 479.804 577.052C472.49 582.716 458.831 572.994 462.741 564.609L576.796 320.02C576.814 319.98 576.814 319.934 576.795 319.894C576.761 319.819 576.793 319.73 576.867 319.695L576.906 319.677C576.947 319.658 576.98 319.625 576.999 319.584L583.978 304.619C585.292 301.801 588.119 300 591.228 300H690.596C693.705 300 696.532 301.801 697.846 304.619L704.825 319.586Z" fill="url(#paint6_radial_402_5926)"/>
<path d="M688.908 560.322C686.291 554.709 690.77 548.423 696.893 549.353C757.064 558.491 810.471 588.221 849.703 631.13C850.244 631.721 850.689 632.392 851.027 633.118L888.099 712.619C890.572 717.923 886.701 724 880.849 724H770.33C767.221 724 764.393 722.199 763.079 719.381L688.908 560.322ZM518.744 719.381C517.43 722.199 514.602 724 511.493 724H421.614C416.148 724 412.297 718.637 414.255 713.534C442.643 639.551 503.816 581.812 579.989 558.107C586.39 556.114 591.818 562.67 588.985 568.746L518.744 719.381ZM704.825 319.586C704.844 319.626 704.877 319.659 704.917 319.678L704.956 319.696C705.03 319.731 705.062 319.819 705.027 319.893C705.009 319.933 705.009 319.979 705.027 320.019L807.477 539.725C810.905 547.077 802.133 554.798 794.992 550.951C758.455 531.27 717.22 519.187 673.402 516.817C670.405 516.655 667.72 514.883 666.451 512.163L648.161 472.939C645.29 466.781 636.532 466.781 633.66 472.939L613.528 516.112C612.404 518.523 610.151 520.21 607.53 520.664C559.993 528.902 516.417 548.698 479.804 577.052C472.49 582.716 458.831 572.994 462.741 564.609L576.796 320.02C576.814 319.98 576.814 319.934 576.795 319.894C576.761 319.819 576.793 319.73 576.867 319.695L576.906 319.677C576.947 319.658 576.98 319.625 576.999 319.584L583.978 304.619C585.292 301.801 588.119 300 591.228 300H690.596C693.705 300 696.532 301.801 697.846 304.619L704.825 319.586Z" fill="url(#paint7_radial_402_5926)"/>
<path d="M656.303 547C697.059 547 735.69 556.094 770.28 572.362C775.259 574.704 773.176 582.062 767.674 582.062C666.005 582.062 577.554 638.65 532.097 722.047C530.671 724.664 527.945 726.328 524.965 726.328H414.524C409.01 726.328 405.156 720.88 407.2 715.76C446.677 616.873 543.33 547 656.303 547Z" fill="white"/>
<path d="M656.303 547C697.059 547 735.69 556.094 770.28 572.362C775.259 574.704 773.176 582.062 767.674 582.062C666.005 582.062 577.554 638.65 532.097 722.047C530.671 724.664 527.945 726.328 524.965 726.328H414.524C409.01 726.328 405.156 720.88 407.2 715.76C446.677 616.873 543.33 547 656.303 547Z" fill="#ECEFFF"/>
<path d="M656.303 547C697.059 547 735.69 556.094 770.28 572.362C775.259 574.704 773.176 582.062 767.674 582.062C666.005 582.062 577.554 638.65 532.097 722.047C530.671 724.664 527.945 726.328 524.965 726.328H414.524C409.01 726.328 405.156 720.88 407.2 715.76C446.677 616.873 543.33 547 656.303 547Z" fill="url(#paint8_radial_402_5926)"/>
<path d="M656.303 547C697.059 547 735.69 556.094 770.28 572.362C775.259 574.704 773.176 582.062 767.674 582.062C666.005 582.062 577.554 638.65 532.097 722.047C530.671 724.664 527.945 726.328 524.965 726.328H414.524C409.01 726.328 405.156 720.88 407.2 715.76C446.677 616.873 543.33 547 656.303 547Z" fill="url(#paint9_radial_402_5926)"/>
<path d="M656.303 547C697.059 547 735.69 556.094 770.28 572.362C775.259 574.704 773.176 582.062 767.674 582.062C666.005 582.062 577.554 638.65 532.097 722.047C530.671 724.664 527.945 726.328 524.965 726.328H414.524C409.01 726.328 405.156 720.88 407.2 715.76C446.677 616.873 543.33 547 656.303 547Z" fill="url(#paint10_radial_402_5926)"/>
<path d="M656.303 547C697.059 547 735.69 556.094 770.28 572.362C775.259 574.704 773.176 582.062 767.674 582.062C666.005 582.062 577.554 638.65 532.097 722.047C530.671 724.664 527.945 726.328 524.965 726.328H414.524C409.01 726.328 405.156 720.88 407.2 715.76C446.677 616.873 543.33 547 656.303 547Z" fill="url(#paint11_radial_402_5926)"/>
<defs>
<radialGradient id="paint0_radial_402_5926" cx="0" cy="0" r="1" gradientTransform="matrix(-137.956 -387.324 387.315 -228.814 483.689 731.186)" gradientUnits="userSpaceOnUse">
<stop offset="0.634139" stop-color="#1629FF"/>
<stop offset="1" stop-color="#A274FF" stop-opacity="0"/>
</radialGradient>
<radialGradient id="paint1_radial_402_5926" cx="0" cy="0" r="1" gradientTransform="matrix(-140.464 -366.075 365.281 -152.396 447.03 691.661)" gradientUnits="userSpaceOnUse">
<stop offset="0.493539" stop-color="#8258FF"/>
<stop offset="1" stop-color="#8258FF" stop-opacity="0"/>
</radialGradient>
<radialGradient id="paint2_radial_402_5926" cx="0" cy="0" r="1" gradientTransform="matrix(-111.514 -277.545 374.955 -279.04 405.025 738.373)" gradientUnits="userSpaceOnUse">
<stop stop-color="#59B2FF"/>
<stop offset="1" stop-color="#5EB4FF" stop-opacity="0"/>
</radialGradient>
<radialGradient id="paint3_radial_402_5926" cx="0" cy="0" r="1" gradientTransform="matrix(-190.674 -263.482 350.863 -361.721 469.942 706.034)" gradientUnits="userSpaceOnUse">
<stop stop-color="#59B2FF"/>
<stop offset="0.690597" stop-color="#5EB4FF" stop-opacity="0"/>
</radialGradient>
<radialGradient id="paint4_radial_402_5926" cx="0" cy="0" r="1" gradientTransform="matrix(-186.573 -387.324 523.807 -228.814 804.163 731.186)" gradientUnits="userSpaceOnUse">
<stop offset="0.634139" stop-color="#1629FF"/>
<stop offset="1" stop-color="#A274FF" stop-opacity="0"/>
</radialGradient>
<radialGradient id="paint5_radial_402_5926" cx="0" cy="0" r="1" gradientTransform="matrix(-189.964 -366.075 494.008 -152.396 754.585 691.661)" gradientUnits="userSpaceOnUse">
<stop offset="0.493539" stop-color="#8258FF"/>
<stop offset="1" stop-color="#8258FF" stop-opacity="0"/>
</radialGradient>
<radialGradient id="paint6_radial_402_5926" cx="0" cy="0" r="1" gradientTransform="matrix(-150.813 -277.545 507.091 -279.04 697.777 738.373)" gradientUnits="userSpaceOnUse">
<stop stop-color="#59B2FF"/>
<stop offset="1" stop-color="#5EB4FF" stop-opacity="0"/>
</radialGradient>
<radialGradient id="paint7_radial_402_5926" cx="0" cy="0" r="1" gradientTransform="matrix(-257.868 -263.482 474.509 -361.721 785.571 706.034)" gradientUnits="userSpaceOnUse">
<stop stop-color="#59B2FF"/>
<stop offset="0.690597" stop-color="#5EB4FF" stop-opacity="0"/>
</radialGradient>
<radialGradient id="paint8_radial_402_5926" cx="0" cy="0" r="1" gradientTransform="matrix(-143.901 -163.816 404.006 -96.7753 707.774 729.368)" gradientUnits="userSpaceOnUse">
<stop offset="0.634139" stop-color="#1629FF"/>
<stop offset="1" stop-color="#A274FF" stop-opacity="0"/>
</radialGradient>
<radialGradient id="paint9_radial_402_5926" cx="0" cy="0" r="1" gradientTransform="matrix(-146.517 -154.829 381.023 -64.455 669.536 712.651)" gradientUnits="userSpaceOnUse">
<stop offset="0.493539" stop-color="#8258FF"/>
<stop offset="1" stop-color="#8258FF" stop-opacity="0"/>
</radialGradient>
<radialGradient id="paint10_radial_402_5926" cx="0" cy="0" r="1" gradientTransform="matrix(-116.32 -117.386 391.113 -118.018 625.721 732.407)" gradientUnits="userSpaceOnUse">
<stop stop-color="#59B2FF"/>
<stop offset="1" stop-color="#5EB4FF" stop-opacity="0"/>
</radialGradient>
<radialGradient id="paint11_radial_402_5926" cx="0" cy="0" r="1" gradientTransform="matrix(-198.891 -111.438 365.983 -152.988 693.435 718.729)" gradientUnits="userSpaceOnUse">
<stop stop-color="#59B2FF"/>
<stop offset="0.690597" stop-color="#5EB4FF" stop-opacity="0"/>
</radialGradient>
</defs>
</svg>