<?xml version="1.0" standalone="no"?><!DOCTYPE svg PUBLIC "-//W3C//DTD SVG 1.1//EN" "http://www.w3.org/Graphics/SVG/1.1/DTD/svg11.dtd"><svg t="1770734259884" class="icon" viewBox="0 0 1194 1024" version="1.1" xmlns="http://www.w3.org/2000/svg" p-id="23359" xmlns:xlink="http://www.w3.org/1999/xlink" width="233.203125" height="200"><path d="M694.857143 109.714286a73.142857 73.142857 0 0 1 73.142857 73.142857v512a73.142857 73.142857 0 0 1-73.142857 73.142857H182.857143a73.142857 73.142857 0 0 1-73.142857-73.142857V182.857143a73.142857 73.142857 0 0 1 73.142857-73.142857zM292.571429 182.857143H182.857143v512h109.714286z m402.285714 0h-329.142857v512h329.142857z m-175.286857 152.576l77.568 77.531428a36.571429 36.571429 0 0 1 0 51.748572l-77.531429 77.568a36.571429 36.571429 0 1 1-51.748571-51.712L519.570286 438.857143l-51.712-51.712a36.571429 36.571429 0 0 1 51.712-51.712" p-id="23360"></path></svg>